<?xml version="1.0" encoding="utf-8"?>
<!-- Generator: Adobe Illustrator 19.0.0, SVG Export Plug-In . SVG Version: 6.00 Build 0)  -->
<svg version="1.1" id="Layer_1" xmlns="http://www.w3.org/2000/svg" xmlns:xlink="http://www.w3.org/1999/xlink" x="0px" y="0px"
	 width="617.1px" height="872px" viewBox="11 -16.1 617.1 872" style="enable-background:new 11 -16.1 617.1 872;"
	 xml:space="preserve">
<style type="text/css">
	.st0{fill:none;stroke:#F8B43D;stroke-width:80;stroke-miterlimit:10;}
	.st1{fill:none;stroke:#F8B43D;stroke-width:20;stroke-miterlimit:10;}
	.st2{fill:#00AEEF;}
	.st3{fill:#B7B7B7;}
	.st4{opacity:0.53;fill:#00ABE9;enable-background:new    ;}
	.st5{fill:#F8B53F;}
</style>
<circle class="st0" cx="330.2" cy="322.8" r="240.8"/>
<circle class="st1" cx="562.3" cy="807" r="33.3"/>
<circle class="st2" cx="562.3" cy="807" r="19.5"/>
<circle class="st3" cx="574.3" cy="742.8" r="15.3"/>
<circle class="st3" cx="578.5" cy="691.8" r="8.7"/>
<circle class="st2" cx="539.5" cy="725.4" r="3.9"/>
<circle class="st4" cx="562.5" cy="711.7" r="8"/>
<circle class="st5" cx="535.9" cy="697.8" r="9.3"/>
<circle class="st3" cx="556.3" cy="670.2" r="13.5"/>
<circle class="st3" cx="540.1" cy="753" r="9.9"/>
<circle class="st1" cx="104.3" cy="807" r="33.3"/>
<circle class="st2" cx="104.3" cy="807" r="19.5"/>
<circle class="st3" cx="116.3" cy="742.8" r="15.3"/>
<circle class="st3" cx="120.5" cy="691.8" r="8.7"/>
<circle class="st2" cx="81.5" cy="725.4" r="3.9"/>
<circle class="st4" cx="104.5" cy="711.7" r="8"/>
<circle class="st5" cx="77.9" cy="697.8" r="9.3"/>
<circle class="st3" cx="98.3" cy="670.2" r="13.5"/>
<circle class="st3" cx="82.1" cy="753" r="9.9"/>
</svg>
