<?xml version="1.0" encoding="utf-8"?>
<!-- Generator: Adobe Illustrator 19.0.0, SVG Export Plug-In . SVG Version: 6.00 Build 0)  -->
<svg version="1.1" id="Layer_1" xmlns="http://www.w3.org/2000/svg" xmlns:xlink="http://www.w3.org/1999/xlink" x="0px" y="0px"
	 width="586px" height="50px" viewBox="-4 395.9 586 50" style="enable-background:new -4 395.9 586 50;" xml:space="preserve">
<style type="text/css">
	.st0{fill:#777777;}
	.st1{fill:#FFFFFF;}
	.st2{fill:#00ABE2;}
</style>
<path class="st0" d="M107.4,415.9H88.6c-0.3,0-0.6-0.3-0.6-0.6v-13.8c0-0.3,0.3-0.6,0.6-0.6h1.9V399c0-0.3,0.3-0.6,0.6-0.6H93v-1.9
	c0-0.3,0.3-0.6,0.6-0.6h8.8c0.3,0,0.6,0.3,0.6,0.6v1.9h1.9c0.3,0,0.6,0.3,0.6,0.6v1.9h1.9c0.3,0,0.6,0.3,0.6,0.6v13.8
	C108,415.6,107.7,415.9,107.4,415.9z M101.8,397.1h-7.5v1.3h7.5V397.1z M104.3,399.6H91.8v1.3h12.5V399.6z M106.8,402.1H89.3v12.5
	h17.5V402.1z M96.8,409.6c0.5,0,0.9,0.1,1.3,0.3V404c0,0,0,0,0-0.1c0,0,0,0,0-0.1c0,0,0,0,0-0.1c0,0,0-0.1,0-0.1c0,0,0-0.1,0.1-0.1
	c0,0,0.1-0.1,0.1-0.1c0,0,0.1,0,0.1-0.1c0,0,0.1,0,0.1-0.1c0,0,0.1,0,0.1,0c0,0,0,0,0.1,0c0,0,0,0,0.1,0c0,0,0,0,0.1,0
	c1,0.2,3,1.1,3,3c0,0.3-0.3,0.6-0.6,0.6s-0.6-0.3-0.6-0.6c0-0.8-0.7-1.3-1.3-1.6v6.6c0,1.1-1.1,1.9-2.5,1.9s-2.5-0.8-2.5-1.9
	C94.3,410.5,95.3,409.6,96.8,409.6z M96.8,412.1c0.8,0,1.3-0.4,1.3-0.6c0-0.2-0.5-0.6-1.3-0.6c-0.8,0-1.3,0.4-1.3,0.6
	C95.5,411.8,96,412.1,96.8,412.1z"/>
<path class="st0" d="M140,401.8C140,401.8,140,401.8,140,401.8C140,401.8,140,401.9,140,401.8C140,401.9,140,401.9,140,401.8
	C140,401.9,140,401.9,140,401.8c0,0.1,0,0.1,0,0.1c0,0,0,0,0,0c0,0,0,0,0,0c0,0,0,0,0,0c0,0,0,0,0,0c0,0,0,0,0,0c0,0,0,0,0,0
	c0,0,0,0,0,0c0,0,0,0,0,0l0,0l0,0l-11.1,13.6c0,0,0,0,0,0c0,0,0,0,0,0c0,0,0,0,0,0c0,0,0,0,0,0c0,0,0,0,0,0c0,0,0,0,0,0c0,0,0,0,0,0
	c0,0,0,0,0,0c0,0,0,0,0,0c0,0,0,0,0,0c0,0,0,0,0,0c0,0,0,0,0,0c0,0,0,0,0,0c0,0,0,0,0,0c0,0,0,0,0,0c0,0,0,0,0,0s0,0,0,0
	c0,0,0,0,0,0c0,0,0,0,0,0c0,0,0,0,0,0c0,0,0,0,0,0c0,0,0,0,0,0c0,0,0,0,0,0c0,0,0,0,0,0c0,0,0,0,0,0c0,0,0,0,0,0c0,0,0,0,0,0
	c0,0,0,0,0,0c0,0,0,0,0,0c0,0,0,0,0,0c0,0,0,0,0,0c0,0,0,0,0,0l-11-13.6c0,0,0,0,0,0v0c0,0,0,0,0,0c0,0,0,0,0,0c0,0,0,0,0,0
	c0,0,0,0,0,0c0,0,0,0,0,0c0,0,0,0,0,0c0,0,0,0,0,0c0,0,0,0,0,0c0,0,0,0,0,0c0,0,0,0,0,0c0,0,0,0,0,0c0,0,0,0,0,0c0,0,0,0,0,0
	c0,0,0,0,0,0c0,0,0,0,0,0c0,0,0,0,0,0c0,0,0,0,0,0c0,0,0,0,0,0c0,0,0,0,0,0c0,0,0,0,0,0c0,0,0,0,0,0c0,0,0,0,0,0c0,0,0,0,0,0
	c0,0,0,0,0,0c0,0,0,0,0,0c0,0,0,0,0,0c0,0,0,0,0,0c0,0,0,0,0,0c0,0,0,0,0,0c0,0,0,0,0,0l4.8-5.5c0,0,0,0,0,0c0,0,0,0,0,0
	c0,0,0,0,0,0c0,0,0,0,0,0c0,0,0,0,0,0c0,0,0,0,0,0l0,0c0,0,0.1,0,0.1,0l0,0c0,0,0,0,0,0c0,0,0,0,0,0c0,0,0,0,0,0c0,0,0,0,0,0
	c0,0,0,0,0,0c0,0,0,0,0,0c0,0,0,0,0,0h12.6c0,0,0,0,0,0c0,0,0,0,0,0c0,0,0,0,0,0c0,0,0,0,0,0c0,0,0,0,0,0c0,0,0,0,0,0c0,0,0,0,0,0
	c0,0,0,0,0,0c0,0,0.1,0,0.1,0l0,0c0,0,0,0,0,0c0,0,0,0,0,0c0,0,0,0,0,0c0,0,0,0,0,0c0,0,0,0,0,0c0,0,0,0,0,0l4.8,5.5c0,0,0,0,0,0
	c0,0,0,0,0,0c0,0,0,0,0,0c0,0,0,0,0,0c0,0,0,0,0,0c0,0,0,0,0,0c0,0,0,0,0,0c0,0,0,0,0,0c0,0,0,0,0,0c0,0,0,0,0,0c0,0,0,0,0,0
	c0,0,0,0,0,0C140,401.7,140,401.7,140,401.8C140,401.8,140,401.8,140,401.8C140,401.8,140,401.8,140,401.8
	C140,401.8,140,401.8,140,401.8C140,401.8,140,401.8,140,401.8z M127.3,413.2l-3.6-11h-5.3L127.3,413.2z M122,397.2l-3.6,4.1h4.9
	L122,397.2z M122.8,396.8l1.3,4.1l3.4-4.1H122.8z M125,401.3h1.7c0.2,0,0.4,0.2,0.4,0.5c0,0.3-0.2,0.5-0.4,0.5h-2.1l3.9,11.7
	l3.9-11.7h-2.1c-0.2,0-0.4-0.2-0.4-0.5c0-0.3,0.2-0.5,0.4-0.5h1.8l-3.5-4.3L125,401.3z M129.5,396.8l3.4,4.1l1.3-4.1H129.5z
	 M135,397.2l-1.4,4.1h4.9L135,397.2z M133.3,402.3l-3.6,11l8.9-11H133.3z M128.5,402.3c-0.2,0-0.4-0.2-0.4-0.5
	c0-0.3,0.2-0.5,0.4-0.5s0.4,0.2,0.4,0.5C128.9,402,128.7,402.3,128.5,402.3z"/>
<path class="st0" d="M168,406c0-2.7-1-5.2-2.9-7.1s-4.4-3-7.1-3s-5.2,1-7.1,3s-2.9,4.4-2.9,7.1v4.8c0,2.7,2.2,4.9,4.9,4.9
	c0.3,0,0.6-0.3,0.6-0.6v-8.6c0-0.3-0.3-0.6-0.6-0.6c-1.5,0-2.8,0.7-3.7,1.7V406c0-4.9,4-8.9,8.8-8.9c4.9,0,8.8,4,8.8,8.9
	c0,0,0,0.1,0,0.1c0,0,0,0.1,0,0.1v1.6c-0.9-1.1-2.2-1.7-3.7-1.7c-0.3,0-0.6,0.3-0.6,0.6v8.6c0,0.3,0.3,0.6,0.6,0.6
	c2.7,0,4.9-2.2,4.9-4.9v-4.8c0,0,0-0.1,0-0.1C168,406.1,168,406,168,406z M152.3,407.1v7.4c-1.8-0.3-3.1-1.8-3.1-3.7
	C149.2,408.9,150.5,407.4,152.3,407.1z M163.7,414.7v-7.4c1.8,0.3,3.1,1.8,3.1,3.7C166.8,412.9,165.5,414.4,163.7,414.7z"/>
<path class="st0" d="M194.8,413.5c-0.3,0.2-0.7,0.2-0.9-0.1c-0.2-0.3-0.2-0.7,0.1-0.9c2.3-1.9,3.7-4.7,3.7-7.7c0-3-1.3-5.8-3.7-7.7
	c-0.3-0.2-0.3-0.6-0.1-0.9c0.2-0.3,0.6-0.3,0.9-0.1c2.6,2.1,4.2,5.3,4.2,8.7C199,408.2,197.5,411.3,194.8,413.5z M192.7,410.7
	c-0.3,0.2-0.7,0.2-0.9-0.1c-0.2-0.3-0.2-0.7,0.1-0.9c1.5-1.2,2.4-3,2.4-5c0-1.9-0.9-3.8-2.4-5c-0.3-0.2-0.3-0.6-0.1-0.9
	c0.2-0.3,0.6-0.3,0.9-0.1c1.8,1.5,2.9,3.7,2.9,6C195.6,407.1,194.5,409.3,192.7,410.7z M188.6,408v7.3c0,0.4-0.3,0.7-0.6,0.7
	s-0.6-0.3-0.6-0.7V408c-1.5-0.3-2.6-1.6-2.6-3.2c0-1.8,1.4-3.3,3.2-3.3s3.2,1.5,3.2,3.3C191.2,406.3,190.1,407.6,188.6,408z
	 M188,402.8c-1.1,0-1.9,0.9-1.9,2c0,1.1,0.9,2,1.9,2s1.9-0.9,1.9-2C189.9,403.7,189.1,402.8,188,402.8z M184.2,410.6
	c-0.2,0.3-0.6,0.3-0.9,0.1c-1.8-1.5-2.9-3.7-2.9-6c0-2.3,1-4.5,2.9-6c0.3-0.2,0.7-0.2,0.9,0.1c0.2,0.3,0.2,0.7-0.1,0.9
	c-1.5,1.2-2.4,3-2.4,5c0,1.9,0.9,3.8,2.4,5C184.4,410,184.4,410.4,184.2,410.6z M178.3,404.7c0,3,1.3,5.8,3.7,7.7
	c0.3,0.2,0.3,0.6,0.1,0.9c-0.2,0.3-0.6,0.3-0.9,0.1c-2.6-2.1-4.2-5.3-4.2-8.7c0-3.4,1.5-6.6,4.2-8.7c0.3-0.2,0.7-0.2,0.9,0.1
	c0.2,0.3,0.2,0.7-0.1,0.9C179.6,398.9,178.3,401.7,178.3,404.7z"/>
<path class="st0" d="M225.7,415.9h-15.3c-1.3,0-2.3-1.1-2.3-2.3v-5.4h1.6v5.4c0,0.4,0.4,0.8,0.8,0.8h15.3c0.4,0,0.8-0.4,0.8-0.8
	v-5.4h1.6v5.4C228,414.8,226.9,415.9,225.7,415.9z M213.1,406.2l1.1-1.1l3,3v-12.2h1.6v12.2l3-3l1.1,1.1l-4.9,4.9L213.1,406.2z"/>
<path class="st0" d="M255.7,401.1c-0.1-0.3-0.3-0.6-0.7-0.6h-4v-1.6c0-1.7-1.4-3-3-3s-3,1.4-3,3v1.6h-4c-0.3,0-0.6,0.2-0.7,0.6
	l-2.3,14c0,0.2,0,0.4,0.2,0.6c0.1,0.2,0.3,0.2,0.5,0.2h18.6c0,0,0,0,0,0c0.4,0,0.7-0.3,0.7-0.7c0-0.1,0-0.2,0-0.2L255.7,401.1z
	 M246.4,398.9c0-0.9,0.7-1.6,1.6-1.6c0.9,0,1.6,0.7,1.6,1.6v1.6h-3.2V398.9z M239.5,414.5l2.1-12.5h3.4v3.9c0,0.4,0.3,0.7,0.7,0.7
	c0.4,0,0.7-0.3,0.7-0.7V402h3.2v3.9c0,0.4,0.3,0.7,0.7,0.7c0.4,0,0.7-0.3,0.7-0.7V402h3.3l2.1,12.5H239.5z"/>
<path class="st0" d="M286.6,399.6c-0.9-1.1-2.2-1.7-3.7-1.7c-2,0-3.3,1.2-4,2.2c-0.2,0.3-0.3,0.5-0.5,0.8c-0.1-0.2-0.3-0.5-0.5-0.8
	c-0.7-1-2-2.2-4-2.2c-1.4,0-2.7,0.6-3.7,1.7c-0.9,1-1.4,2.4-1.4,3.9c0,1.6,0.6,3.1,1.9,4.7c1.2,1.4,2.9,2.9,4.9,4.6
	c0.7,0.6,1.5,1.3,2.3,2l0,0c0.1,0.1,0.2,0.1,0.4,0.1s0.3,0,0.4-0.1l0,0c0.8-0.7,1.6-1.4,2.3-2c2-1.7,3.7-3.2,4.9-4.6
	c1.3-1.6,1.9-3.1,1.9-4.7C288,402,287.5,400.6,286.6,399.6z M280.5,411.9c-0.6,0.5-1.3,1.1-2,1.7c-0.7-0.6-1.3-1.2-2-1.7
	c-3.9-3.3-6.4-5.5-6.4-8.4c0-1.2,0.4-2.3,1.1-3.1c0.7-0.8,1.7-1.3,2.8-1.3c1.5,0,2.5,1,3.1,1.8c0.5,0.7,0.8,1.4,0.9,1.7
	c0.1,0.2,0.3,0.4,0.5,0.4s0.5-0.2,0.5-0.4c0.1-0.3,0.4-1,0.9-1.7c0.6-0.8,1.5-1.8,3.1-1.8c1.1,0,2.1,0.5,2.8,1.3
	c0.7,0.8,1.1,1.9,1.1,3.1C286.9,406.3,284.3,408.5,280.5,411.9z"/>
<path class="st0" d="M310,406.6l2.5,2l-0.8,1.2l-3.1-2.4v-8.1h1.4V406.6z M317.7,410.9c-2.6,4.8-8.3,6.4-12.8,3.6l0.7-1.3
	c0.8,0.5,1.6,0.8,2.5,1c4.3,0.9,8.5-2.2,9.3-6.8c0.8-4.6-2-9.1-6.4-9.9s-8.5,2.2-9.3,6.8l2.1-2.3l1,1l-4,4.2l-4-4.2l1-1l2.4,2.5
	c0.6-5,4.6-8.7,9.3-8.7c1.6,0,3.3,0.5,4.7,1.3C318.8,400,320.3,406.1,317.7,410.9z M302.9,410.4l-1.2,0.8c-0.3-0.5-0.5-0.9-0.7-1.4
	l1.3-0.6C302.5,409.7,302.7,410.1,302.9,410.4z M304.6,412.5l-0.9,1.1c-0.4-0.3-0.7-0.7-1.1-1.1l1-1
	C303.9,411.9,304.3,412.2,304.6,412.5z"/>
<path class="st0" d="M347.3,398.5c-0.2-0.1-0.5-0.2-0.7,0l-5.1,2.6c-0.4,0.1-0.7,0.4-0.7,0.8l0.3,8.1c-0.4-0.2-0.9-0.3-1.5-0.3
	c-0.5,0-1,0.1-1.5,0.2c-2,0.7-3.2,2.5-2.7,4.1c0.4,1.2,1.5,1.9,3,1.9c0.5,0,1-0.1,1.5-0.2c1.8-0.6,3-2.1,2.9-3.6c0-0.1,0-0.2,0-0.3
	l-0.1-4.8l5-2.3c0.3-0.1,0.5-0.5,0.5-0.8l-0.2-4.7C347.7,398.8,347.6,398.6,347.3,398.5z M339.3,414.1c-0.3,0.1-0.7,0.2-1,0.2
	c-0.8,0-1.4-0.3-1.5-0.8c-0.2-0.6,0.5-1.6,1.7-2c0.3-0.1,0.7-0.2,1-0.2c0.8,0,1.4,0.3,1.5,0.8C341.2,412.7,340.6,413.6,339.3,414.1z
	 M342.5,405.2l-0.1-2.8l3.8-2l0.1,2.9L342.5,405.2z M341.8,397.5h-13c-0.4,0-0.8-0.4-0.8-0.8s0.4-0.8,0.8-0.8h13
	c0.4,0,0.8,0.4,0.8,0.8S342.2,397.5,341.8,397.5z M338,401.5c0,0.5-0.4,0.8-0.8,0.8h-8.4c-0.4,0-0.8-0.4-0.8-0.8
	c0-0.5,0.4-0.8,0.8-0.8h8.4C337.6,400.7,338,401.1,338,401.5z M338,406.2c0,0.5-0.4,0.8-0.8,0.8h-8.4c-0.4,0-0.8-0.4-0.8-0.8
	c0-0.5,0.4-0.8,0.8-0.8h8.4C337.6,405.4,338,405.8,338,406.2z"/>
<path class="st0" d="M374.2,410v4.9h-2.4V410H367v-2.4h4.8v-4.9h2.4v4.9h4.8v2.4H374.2z M355,402.7h14.4v2.4H355V402.7z M355,397.9
	h14.4v2.4H355V397.9z M364.6,410H355v-2.4h9.6V410z"/>
<path class="st1" d="M403.6,412.5c-0.5,0.5-1.3,0.5-1.9,0l-3.2-3.2c0.7-0.5,1.4-1.1,1.9-1.9l3.2,3.2
	C404.1,411.2,404.1,412,403.6,412.5z M395.3,409.4c-2.9,0-5.2-2.3-5.2-5.2c0-2.9,2.3-5.2,5.2-5.2c2.9,0,5.2,2.3,5.2,5.2
	C400.5,407,398.1,409.4,395.3,409.4z M395.3,400.2c-2.2,0-3.9,1.8-3.9,3.9c0,2.2,1.8,3.9,3.9,3.9c2.2,0,3.9-1.8,3.9-3.9
	C399.2,402,397.4,400.2,395.3,400.2z M393.1,404.1h-0.9c0-1.7,1.4-3.1,3.1-3.1v0.9C394,402,393.1,402.9,393.1,404.1z"/>
<path class="st1" d="M433.5,413.9l-0.8-2.3h-3.5l-0.8,2.3H427l3.3-9h1.5l3.3,9H433.5z M431,406.9l-1.2,3.3h2.4L431,406.9z
	 M425.8,406.8L425.8,406.8l1.8,1.9l-0.6,1.5l-2.3-2.3l-3.6,3.8l-1-1.1l3.7-3.8c-0.9-1-1.6-2.2-2.2-3.4h1.5c0.4,0.9,1,1.7,1.7,2.5
	c1-1.2,1.8-2.6,2.3-4H419v-1.5h5.1v-1.5h1.5v1.5h5.1v1.5h-2.1C428,403.7,427.1,405.3,425.8,406.8z"/>
<path class="st0" d="M48.3,413.2h-3.4v2c0,0.4-0.3,0.7-0.7,0.7H31.8c-0.4,0-0.7-0.3-0.7-0.7v-2h-3.4c-0.4,0-0.7-0.3-0.7-0.7v-12.2
	c0-0.4,0.3-0.7,0.7-0.7h3.4v-2c0-0.4,0.3-0.7,0.7-0.7h12.4c0.4,0,0.7,0.3,0.7,0.7v2h3.4c0.4,0,0.7,0.3,0.7,0.7v12.2
	C49,412.9,48.7,413.2,48.3,413.2z M31.1,401h-2.8v10.9h2.8V401z M43.5,398.2h-11v16.3h11V398.2z M47.6,401h-2.8v10.9h2.8V401z
	 M36.6,407.7c0.5,0,1,0.1,1.4,0.3v-6.4c0-0.2,0.1-0.4,0.2-0.5c0.2-0.1,0.4-0.2,0.6-0.1c1.1,0.2,3.3,1.2,3.3,3.3
	c0,0.4-0.3,0.7-0.7,0.7c-0.4,0-0.7-0.3-0.7-0.7c0-0.9-0.8-1.4-1.4-1.7v7.2c0,1.1-1.2,2-2.8,2s-2.8-0.9-2.8-2
	C33.9,408.6,35.1,407.7,36.6,407.7z M36.6,410.5c0.8,0,1.4-0.4,1.4-0.7c0-0.3-0.5-0.7-1.4-0.7s-1.4,0.4-1.4,0.7
	C35.3,410.1,35.8,410.5,36.6,410.5z"/>
<path class="st0" d="M67.2,412v2.6h-1.9c-0.4,0-0.7,0.3-0.7,0.6c0,0.3,0.3,0.6,0.7,0.6h6.5c0.4,0,0.7-0.3,0.7-0.6
	c0-0.3-0.3-0.6-0.7-0.6h-1.9V412c2.7-0.5,5.2-2.6,5.2-6.1V404c0-0.3-0.3-0.6-0.7-0.6s-0.7,0.3-0.7,0.6v1.9c0,3.3-2.6,5-5.2,5
	c-2.5,0-5.2-1.6-5.2-5V404c0-0.3-0.3-0.6-0.7-0.6S62,403.7,62,404v1.9C62,409.4,64.4,411.5,67.2,412z M68.5,409.6
	c2.2,0,3.9-1.7,3.9-3.8v-6.3c0-2.1-1.8-3.8-3.9-3.8s-3.9,1.7-3.9,3.8v6.3C64.6,408,66.3,409.6,68.5,409.6z M65.9,399.6
	c0-1.4,1.2-2.5,2.6-2.5s2.6,1.1,2.6,2.5v6.3c0,1.4-1.2,2.5-2.6,2.5s-2.6-1.1-2.6-2.5V399.6z"/>
<path class="st0" d="M18.9,404.6c-0.1,0.2-0.3,0.2-0.5,0.2c-0.1,0-0.2,0-0.4-0.1l-10.5-7.5L-3,404.7c-0.3,0.2-0.6,0.1-0.8-0.1
	c-0.2-0.3-0.1-0.6,0.1-0.8L7.2,396c0.2-0.2,0.5-0.2,0.7,0l10.9,7.8C19,404,19.1,404.3,18.9,404.6z M-0.9,404.9
	c0.3,0,0.6,0.3,0.6,0.6v9.3h4.8v-5.1c0-1.6,1.3-2.9,3-2.9c1.6,0,3,1.3,3,2.9v5.1h4.8v-9.3c0-0.3,0.3-0.6,0.6-0.6s0.6,0.3,0.6,0.6
	v9.9c0,0.3-0.3,0.6-0.6,0.6h-6c-0.3,0-0.6-0.2-0.6-0.5c0,0,0,0,0,0v-5.6c0-1-0.8-1.7-1.8-1.7s-1.8,0.8-1.8,1.7v5.6c0,0,0,0,0,0
	c0,0.3-0.3,0.5-0.6,0.5h-6c-0.3,0-0.6-0.3-0.6-0.6v-9.9C-1.5,405.1-1.2,404.9-0.9,404.9z"/>
<path class="st0" d="M492.4,405.1h-4.5v-4.5c0-0.2-0.3-0.7-0.8-0.7c-0.6,0-0.8,0.4-0.8,0.7v4.5h-4.5c-0.2,0-0.7,0.3-0.7,0.8
	c0,0.6,0.4,0.8,0.7,0.8h4.5v4.5c0,0.2,0.3,0.7,0.8,0.7c0.6,0,0.8-0.4,0.8-0.7v-4.5h4.5c0.2,0,0.7-0.3,0.7-0.8
	C493,405.3,492.6,405.1,492.4,405.1z"/>
<path class="st0" d="M521.1,412.4h-9.2c-0.8,0-1.4-0.6-1.4-1.4v-3.3h0.9v3.3c0,0.3,0.2,0.5,0.5,0.5h9.2c0.3,0,0.5-0.2,0.5-0.5v-3.3
	h0.9v3.3C522.5,411.8,521.9,412.4,521.1,412.4z M513.6,406.6l0.7-0.7l1.8,1.8v-7.3h0.9v7.3l1.8-1.8l0.7,0.7l-2.9,2.9L513.6,406.6z"
	/>
<path class="st1" d="M403.9,442.9h-12.8c-1.1,0-2.1-0.9-2.1-2.1V432c0-1.2,0.9-2.1,2.1-2.1h12.8c1.1,0,2.1,0.9,2.1,2.1v8.8
	C406,442,405.1,442.9,403.9,442.9z M405,440.8V432c0-0.6-0.5-1.1-1.1-1.1h-12.8c-0.6,0-1.1,0.5-1.1,1.1v8.8c0,0.6,0.5,1.1,1.1,1.1
	h12.8C404.5,441.9,405.1,441.4,405,440.8L405,440.8z M403.9,440.9c-0.1,0.1-0.2,0.1-0.3,0.1c-0.1,0-0.2,0-0.3-0.1l-4.2-4l-1.2,1.1
	c-0.1,0.1-0.2,0.1-0.3,0.1c-0.1,0-0.2,0-0.3-0.1l-1.2-1l-4.3,4c-0.1,0.1-0.2,0.1-0.3,0.1c-0.1,0-0.3-0.1-0.3-0.2
	c-0.2-0.2-0.2-0.5,0-0.7l4.2-3.9l-4.2-3.8c-0.2-0.2-0.2-0.5,0-0.7c0.2-0.2,0.5-0.2,0.7,0l4.6,4.1c0,0,0.1,0,0.1,0.1c0,0,0,0,0,0
	l1.1,1l5.7-5.2c0.2-0.2,0.5-0.2,0.7,0c0.2,0.2,0.2,0.5,0,0.7l-4.2,3.7l4.2,4C404.1,440.4,404.1,440.7,403.9,440.9z"/>
<path class="st1" d="M432.2,436.4l-4.6,7.3c-0.1,0.1-0.3,0.2-0.4,0.2c0,0,0,0,0,0c-0.2,0-0.3-0.1-0.4-0.2l-4.8-7.2
	c-0.6-0.9-0.9-1.9-0.9-3c0-3.1,2.7-5.6,6-5.6s6,2.5,6,5.6C433,434.5,432.7,435.5,432.2,436.4z M427,428.8c-2.8,0-5,2.1-5,4.7
	c0,0.9,0.3,1.7,0.8,2.5l4.3,6.5l4.2-6.6c0.5-0.7,0.7-1.6,0.7-2.4C432,430.9,429.8,428.8,427,428.8z M427,436.3c-1.7,0-3-1.3-3-2.8
	c0-1.6,1.3-2.8,3-2.8s3,1.3,3,2.8C430,435,428.7,436.3,427,436.3z M427,431.6c-1.1,0-2,0.8-2,1.9c0,1,0.9,1.9,2,1.9
	c1.1,0,2-0.9,2-1.9C429,432.5,428.1,431.6,427,431.6z"/>
<path class="st1" d="M107.4,445.9H88.6c-0.3,0-0.6-0.3-0.6-0.6v-13.8c0-0.3,0.3-0.6,0.6-0.6h1.9V429c0-0.3,0.3-0.6,0.6-0.6H93v-1.9
	c0-0.3,0.3-0.6,0.6-0.6h8.8c0.3,0,0.6,0.3,0.6,0.6v1.9h1.9c0.3,0,0.6,0.3,0.6,0.6v1.9h1.9c0.3,0,0.6,0.3,0.6,0.6v13.8
	C108,445.6,107.7,445.9,107.4,445.9z M101.8,427.1h-7.5v1.3h7.5V427.1z M104.3,429.6H91.8v1.3h12.5V429.6z M106.8,432.1H89.3v12.5
	h17.5V432.1z M96.8,439.6c0.5,0,0.9,0.1,1.3,0.3V434c0,0,0,0,0-0.1c0,0,0,0,0-0.1c0,0,0,0,0-0.1c0,0,0-0.1,0-0.1c0,0,0-0.1,0.1-0.1
	c0,0,0.1-0.1,0.1-0.1c0,0,0.1,0,0.1-0.1c0,0,0.1,0,0.1-0.1c0,0,0.1,0,0.1,0c0,0,0,0,0.1,0c0,0,0,0,0.1,0c0,0,0,0,0.1,0
	c1,0.2,3,1.1,3,3c0,0.3-0.3,0.6-0.6,0.6s-0.6-0.3-0.6-0.6c0-0.8-0.7-1.3-1.3-1.6v6.6c0,1.1-1.1,1.9-2.5,1.9s-2.5-0.8-2.5-1.9
	C94.3,440.5,95.3,439.6,96.8,439.6z M96.8,442.1c0.8,0,1.3-0.4,1.3-0.6c0-0.2-0.5-0.6-1.3-0.6c-0.8,0-1.3,0.4-1.3,0.6
	C95.5,441.8,96,442.1,96.8,442.1z"/>
<path class="st1" d="M140,431.8C140,431.8,140,431.8,140,431.8C140,431.8,140,431.9,140,431.8C140,431.9,140,431.9,140,431.8
	C140,431.9,140,431.9,140,431.8c0,0.1,0,0.1,0,0.1c0,0,0,0,0,0c0,0,0,0,0,0c0,0,0,0,0,0c0,0,0,0,0,0c0,0,0,0,0,0c0,0,0,0,0,0
	c0,0,0,0,0,0c0,0,0,0,0,0l0,0l0,0l-11.1,13.6c0,0,0,0,0,0c0,0,0,0,0,0c0,0,0,0,0,0c0,0,0,0,0,0c0,0,0,0,0,0c0,0,0,0,0,0c0,0,0,0,0,0
	c0,0,0,0,0,0c0,0,0,0,0,0c0,0,0,0,0,0c0,0,0,0,0,0c0,0,0,0,0,0c0,0,0,0,0,0c0,0,0,0,0,0c0,0,0,0,0,0c0,0,0,0,0,0s0,0,0,0
	c0,0,0,0,0,0c0,0,0,0,0,0c0,0,0,0,0,0c0,0,0,0,0,0c0,0,0,0,0,0c0,0,0,0,0,0c0,0,0,0,0,0c0,0,0,0,0,0c0,0,0,0,0,0c0,0,0,0,0,0
	c0,0,0,0,0,0c0,0,0,0,0,0c0,0,0,0,0,0c0,0,0,0,0,0c0,0,0,0,0,0l-11-13.6c0,0,0,0,0,0v0c0,0,0,0,0,0c0,0,0,0,0,0c0,0,0,0,0,0
	c0,0,0,0,0,0c0,0,0,0,0,0c0,0,0,0,0,0c0,0,0,0,0,0c0,0,0,0,0,0c0,0,0,0,0,0c0,0,0,0,0,0c0,0,0,0,0,0c0,0,0,0,0,0c0,0,0,0,0,0
	c0,0,0,0,0,0c0,0,0,0,0,0c0,0,0,0,0,0c0,0,0,0,0,0c0,0,0,0,0,0c0,0,0,0,0,0c0,0,0,0,0,0c0,0,0,0,0,0c0,0,0,0,0,0c0,0,0,0,0,0
	c0,0,0,0,0,0c0,0,0,0,0,0c0,0,0,0,0,0c0,0,0,0,0,0c0,0,0,0,0,0c0,0,0,0,0,0c0,0,0,0,0,0l4.8-5.5c0,0,0,0,0,0c0,0,0,0,0,0
	c0,0,0,0,0,0c0,0,0,0,0,0c0,0,0,0,0,0c0,0,0,0,0,0l0,0c0,0,0.1,0,0.1,0l0,0c0,0,0,0,0,0c0,0,0,0,0,0c0,0,0,0,0,0c0,0,0,0,0,0
	c0,0,0,0,0,0c0,0,0,0,0,0c0,0,0,0,0,0h12.6c0,0,0,0,0,0c0,0,0,0,0,0c0,0,0,0,0,0c0,0,0,0,0,0c0,0,0,0,0,0c0,0,0,0,0,0c0,0,0,0,0,0
	c0,0,0,0,0,0c0,0,0.1,0,0.1,0l0,0c0,0,0,0,0,0c0,0,0,0,0,0c0,0,0,0,0,0c0,0,0,0,0,0c0,0,0,0,0,0c0,0,0,0,0,0l4.8,5.5c0,0,0,0,0,0
	c0,0,0,0,0,0c0,0,0,0,0,0c0,0,0,0,0,0c0,0,0,0,0,0c0,0,0,0,0,0c0,0,0,0,0,0c0,0,0,0,0,0c0,0,0,0,0,0c0,0,0,0,0,0c0,0,0,0,0,0
	c0,0,0,0,0,0C140,431.7,140,431.7,140,431.8C140,431.8,140,431.8,140,431.8C140,431.8,140,431.8,140,431.8
	C140,431.8,140,431.8,140,431.8C140,431.8,140,431.8,140,431.8z M127.3,443.2l-3.6-11h-5.3L127.3,443.2z M122,427.2l-3.6,4.1h4.9
	L122,427.2z M122.8,426.8l1.3,4.1l3.4-4.1H122.8z M125,431.3h1.7c0.2,0,0.4,0.2,0.4,0.5c0,0.3-0.2,0.5-0.4,0.5h-2.1l3.9,11.7
	l3.9-11.7h-2.1c-0.2,0-0.4-0.2-0.4-0.5c0-0.3,0.2-0.5,0.4-0.5h1.8l-3.5-4.3L125,431.3z M129.5,426.8l3.4,4.1l1.3-4.1H129.5z
	 M135,427.2l-1.4,4.1h4.9L135,427.2z M133.3,432.3l-3.6,11l8.9-11H133.3z M128.5,432.3c-0.2,0-0.4-0.2-0.4-0.5
	c0-0.3,0.2-0.5,0.4-0.5s0.4,0.2,0.4,0.5C128.9,432,128.7,432.3,128.5,432.3z"/>
<path class="st1" d="M168,436c0-2.7-1-5.2-2.9-7.1s-4.4-3-7.1-3s-5.2,1-7.1,3s-2.9,4.4-2.9,7.1v4.8c0,2.7,2.2,4.9,4.9,4.9
	c0.3,0,0.6-0.3,0.6-0.6v-8.6c0-0.3-0.3-0.6-0.6-0.6c-1.5,0-2.8,0.7-3.7,1.7V436c0-4.9,4-8.9,8.8-8.9c4.9,0,8.8,4,8.8,8.9
	c0,0,0,0.1,0,0.1c0,0,0,0.1,0,0.1v1.6c-0.9-1.1-2.2-1.7-3.7-1.7c-0.3,0-0.6,0.3-0.6,0.6v8.6c0,0.3,0.3,0.6,0.6,0.6
	c2.7,0,4.9-2.2,4.9-4.9v-4.8c0,0,0-0.1,0-0.1C168,436.1,168,436,168,436z M152.3,437.1v7.4c-1.8-0.3-3.1-1.8-3.1-3.7
	C149.2,438.9,150.5,437.4,152.3,437.1z M163.7,444.7v-7.4c1.8,0.3,3.1,1.8,3.1,3.7C166.8,442.9,165.5,444.4,163.7,444.7z"/>
<path class="st1" d="M194.8,443.5c-0.3,0.2-0.7,0.2-0.9-0.1c-0.2-0.3-0.2-0.7,0.1-0.9c2.3-1.9,3.7-4.7,3.7-7.7c0-3-1.3-5.8-3.7-7.7
	c-0.3-0.2-0.3-0.6-0.1-0.9c0.2-0.3,0.6-0.3,0.9-0.1c2.6,2.1,4.2,5.3,4.2,8.7C199,438.2,197.5,441.3,194.8,443.5z M192.7,440.7
	c-0.3,0.2-0.7,0.2-0.9-0.1c-0.2-0.3-0.2-0.7,0.1-0.9c1.5-1.2,2.4-3,2.4-5c0-1.9-0.9-3.8-2.4-5c-0.3-0.2-0.3-0.6-0.1-0.9
	c0.2-0.3,0.6-0.3,0.9-0.1c1.8,1.5,2.9,3.7,2.9,6C195.6,437.1,194.5,439.3,192.7,440.7z M188.6,438v7.3c0,0.4-0.3,0.7-0.6,0.7
	s-0.6-0.3-0.6-0.7V438c-1.5-0.3-2.6-1.6-2.6-3.2c0-1.8,1.4-3.3,3.2-3.3s3.2,1.5,3.2,3.3C191.2,436.3,190.1,437.6,188.6,438z
	 M188,432.8c-1.1,0-1.9,0.9-1.9,2c0,1.1,0.9,2,1.9,2s1.9-0.9,1.9-2C189.9,433.7,189.1,432.8,188,432.8z M184.2,440.6
	c-0.2,0.3-0.6,0.3-0.9,0.1c-1.8-1.5-2.9-3.7-2.9-6c0-2.3,1-4.5,2.9-6c0.3-0.2,0.7-0.2,0.9,0.1c0.2,0.3,0.2,0.7-0.1,0.9
	c-1.5,1.2-2.4,3-2.4,5c0,1.9,0.9,3.8,2.4,5C184.4,440,184.4,440.4,184.2,440.6z M178.3,434.7c0,3,1.3,5.8,3.7,7.7
	c0.3,0.2,0.3,0.6,0.1,0.9c-0.2,0.3-0.6,0.3-0.9,0.1c-2.6-2.1-4.2-5.3-4.2-8.7c0-3.4,1.5-6.6,4.2-8.7c0.3-0.2,0.7-0.2,0.9,0.1
	c0.2,0.3,0.2,0.7-0.1,0.9C179.6,428.9,178.3,431.7,178.3,434.7z"/>
<path class="st1" d="M225.7,445.9h-15.3c-1.3,0-2.3-1.1-2.3-2.3v-5.4h1.6v5.4c0,0.4,0.4,0.8,0.8,0.8h15.3c0.4,0,0.8-0.4,0.8-0.8
	v-5.4h1.6v5.4C228,444.8,226.9,445.9,225.7,445.9z M213.1,436.2l1.1-1.1l3,3v-12.2h1.6v12.2l3-3l1.1,1.1l-4.9,4.9L213.1,436.2z"/>
<path class="st1" d="M255.7,431.1c-0.1-0.3-0.3-0.6-0.7-0.6h-4v-1.6c0-1.7-1.4-3-3-3s-3,1.4-3,3v1.6h-4c-0.3,0-0.6,0.2-0.7,0.6
	l-2.3,14c0,0.2,0,0.4,0.2,0.6c0.1,0.2,0.3,0.2,0.5,0.2h18.6c0,0,0,0,0,0c0.4,0,0.7-0.3,0.7-0.7c0-0.1,0-0.2,0-0.2L255.7,431.1z
	 M246.4,428.9c0-0.9,0.7-1.6,1.6-1.6c0.9,0,1.6,0.7,1.6,1.6v1.6h-3.2V428.9z M239.5,444.5l2.1-12.5h3.4v3.9c0,0.4,0.3,0.7,0.7,0.7
	c0.4,0,0.7-0.3,0.7-0.7V432h3.2v3.9c0,0.4,0.3,0.7,0.7,0.7c0.4,0,0.7-0.3,0.7-0.7V432h3.3l2.1,12.5H239.5z"/>
<path class="st1" d="M286.6,429.6c-0.9-1.1-2.2-1.7-3.7-1.7c-2,0-3.3,1.2-4,2.2c-0.2,0.3-0.3,0.5-0.5,0.8c-0.1-0.2-0.3-0.5-0.5-0.8
	c-0.7-1-2-2.2-4-2.2c-1.4,0-2.7,0.6-3.7,1.7c-0.9,1-1.4,2.4-1.4,3.9c0,1.6,0.6,3.1,1.9,4.7c1.2,1.4,2.9,2.9,4.9,4.6
	c0.7,0.6,1.5,1.3,2.3,2l0,0c0.1,0.1,0.2,0.1,0.4,0.1s0.3,0,0.4-0.1l0,0c0.8-0.7,1.6-1.4,2.3-2c2-1.7,3.7-3.2,4.9-4.6
	c1.3-1.6,1.9-3.1,1.9-4.7C288,432,287.5,430.6,286.6,429.6z M280.5,441.9c-0.6,0.5-1.3,1.1-2,1.7c-0.7-0.6-1.3-1.2-2-1.7
	c-3.9-3.3-6.4-5.5-6.4-8.4c0-1.2,0.4-2.3,1.1-3.1c0.7-0.8,1.7-1.3,2.8-1.3c1.5,0,2.5,1,3.1,1.8c0.5,0.7,0.8,1.4,0.9,1.7
	c0.1,0.2,0.3,0.4,0.5,0.4s0.5-0.2,0.5-0.4c0.1-0.3,0.4-1,0.9-1.7c0.6-0.8,1.5-1.8,3.1-1.8c1.1,0,2.1,0.5,2.8,1.3
	c0.7,0.8,1.1,1.9,1.1,3.1C286.9,436.3,284.3,438.5,280.5,441.9z"/>
<path class="st1" d="M310,436.6l2.5,2l-0.8,1.2l-3.1-2.4v-8.1h1.4V436.6z M317.7,440.9c-2.6,4.8-8.3,6.4-12.8,3.6l0.7-1.3
	c0.8,0.5,1.6,0.8,2.5,1c4.3,0.9,8.5-2.2,9.3-6.8c0.8-4.6-2-9.1-6.4-9.9s-8.5,2.2-9.3,6.8l2.1-2.3l1,1l-4,4.2l-4-4.2l1-1l2.4,2.5
	c0.6-5,4.6-8.7,9.3-8.7c1.6,0,3.3,0.5,4.7,1.3C318.8,430,320.3,436.1,317.7,440.9z M302.9,440.4l-1.2,0.8c-0.3-0.5-0.5-0.9-0.7-1.4
	l1.3-0.6C302.5,439.7,302.7,440.1,302.9,440.4z M304.6,442.5l-0.9,1.1c-0.4-0.3-0.7-0.7-1.1-1.1l1-1
	C303.9,441.9,304.3,442.2,304.6,442.5z"/>
<path class="st1" d="M347.3,428.5c-0.2-0.1-0.5-0.2-0.7,0l-5.1,2.6c-0.4,0.1-0.7,0.4-0.7,0.8l0.3,8.1c-0.4-0.2-0.9-0.3-1.5-0.3
	c-0.5,0-1,0.1-1.5,0.2c-2,0.7-3.2,2.5-2.7,4.1c0.4,1.2,1.5,1.9,3,1.9c0.5,0,1-0.1,1.5-0.2c1.8-0.6,3-2.1,2.9-3.6c0-0.1,0-0.2,0-0.3
	l-0.1-4.8l5-2.3c0.3-0.1,0.5-0.5,0.5-0.8l-0.2-4.7C347.7,428.8,347.6,428.6,347.3,428.5z M339.3,444.1c-0.3,0.1-0.7,0.2-1,0.2
	c-0.8,0-1.4-0.3-1.5-0.8c-0.2-0.6,0.5-1.6,1.7-2c0.3-0.1,0.7-0.2,1-0.2c0.8,0,1.4,0.3,1.5,0.8C341.2,442.7,340.6,443.6,339.3,444.1z
	 M342.5,435.2l-0.1-2.8l3.8-2l0.1,2.9L342.5,435.2z M341.8,427.5h-13c-0.4,0-0.8-0.4-0.8-0.8s0.4-0.8,0.8-0.8h13
	c0.4,0,0.8,0.4,0.8,0.8S342.2,427.5,341.8,427.5z M338,431.5c0,0.5-0.4,0.8-0.8,0.8h-8.4c-0.4,0-0.8-0.4-0.8-0.8
	c0-0.5,0.4-0.8,0.8-0.8h8.4C337.6,430.7,338,431.1,338,431.5z M338,436.2c0,0.5-0.4,0.8-0.8,0.8h-8.4c-0.4,0-0.8-0.4-0.8-0.8
	c0-0.5,0.4-0.8,0.8-0.8h8.4C337.6,435.4,338,435.8,338,436.2z"/>
<path class="st1" d="M374.2,440v4.9h-2.4V440H367v-2.4h4.8v-4.9h2.4v4.9h4.8v2.4H374.2z M355,432.7h14.4v2.4H355V432.7z M355,427.9
	h14.4v2.4H355V427.9z M364.6,440H355v-2.4h9.6V440z"/>
<path class="st1" d="M48.3,443.2h-3.4v2c0,0.4-0.3,0.7-0.7,0.7H31.8c-0.4,0-0.7-0.3-0.7-0.7v-2h-3.4c-0.4,0-0.7-0.3-0.7-0.7v-12.2
	c0-0.4,0.3-0.7,0.7-0.7h3.4v-2c0-0.4,0.3-0.7,0.7-0.7h12.4c0.4,0,0.7,0.3,0.7,0.7v2h3.4c0.4,0,0.7,0.3,0.7,0.7v12.2
	C49,442.9,48.7,443.2,48.3,443.2z M31.1,431h-2.8v10.9h2.8V431z M43.5,428.2h-11v16.3h11V428.2z M47.6,431h-2.8v10.9h2.8V431z
	 M36.6,437.7c0.5,0,1,0.1,1.4,0.3v-6.4c0-0.2,0.1-0.4,0.2-0.5c0.2-0.1,0.4-0.2,0.6-0.1c1.1,0.2,3.3,1.2,3.3,3.3
	c0,0.4-0.3,0.7-0.7,0.7c-0.4,0-0.7-0.3-0.7-0.7c0-0.9-0.8-1.4-1.4-1.7v7.2c0,1.1-1.2,2-2.8,2s-2.8-0.9-2.8-2
	C33.9,438.6,35.1,437.7,36.6,437.7z M36.6,440.5c0.8,0,1.4-0.4,1.4-0.7c0-0.3-0.5-0.7-1.4-0.7s-1.4,0.4-1.4,0.7
	C35.3,440.1,35.8,440.5,36.6,440.5z"/>
<path class="st1" d="M67.2,442v2.6h-1.9c-0.4,0-0.7,0.3-0.7,0.6c0,0.3,0.3,0.6,0.7,0.6h6.5c0.4,0,0.7-0.3,0.7-0.6
	c0-0.3-0.3-0.6-0.7-0.6h-1.9V442c2.7-0.5,5.2-2.6,5.2-6.1V434c0-0.3-0.3-0.6-0.7-0.6s-0.7,0.3-0.7,0.6v1.9c0,3.3-2.6,5-5.2,5
	c-2.5,0-5.2-1.6-5.2-5V434c0-0.3-0.3-0.6-0.7-0.6S62,433.7,62,434v1.9C62,439.4,64.4,441.5,67.2,442z M68.5,439.6
	c2.2,0,3.9-1.7,3.9-3.8v-6.3c0-2.1-1.8-3.8-3.9-3.8s-3.9,1.7-3.9,3.8v6.3C64.6,438,66.3,439.6,68.5,439.6z M65.9,429.6
	c0-1.4,1.2-2.5,2.6-2.5s2.6,1.1,2.6,2.5v6.3c0,1.4-1.2,2.5-2.6,2.5s-2.6-1.1-2.6-2.5V429.6z"/>
<path class="st1" d="M18.9,434.6c-0.1,0.2-0.3,0.2-0.5,0.2c-0.1,0-0.2,0-0.4-0.1l-10.5-7.5L-3,434.7c-0.3,0.2-0.6,0.1-0.8-0.1
	c-0.2-0.3-0.1-0.6,0.1-0.8L7.2,426c0.2-0.2,0.5-0.2,0.7,0l10.9,7.8C19,434,19.1,434.3,18.9,434.6z M-0.9,434.9
	c0.3,0,0.6,0.3,0.6,0.6v9.3h4.8v-5.1c0-1.6,1.3-2.9,3-2.9c1.6,0,3,1.3,3,2.9v5.1h4.8v-9.3c0-0.3,0.3-0.6,0.6-0.6s0.6,0.3,0.6,0.6
	v9.9c0,0.3-0.3,0.6-0.6,0.6h-6c-0.3,0-0.6-0.2-0.6-0.5c0,0,0,0,0,0v-5.6c0-1-0.8-1.7-1.8-1.7s-1.8,0.8-1.8,1.7v5.6c0,0,0,0,0,0
	c0,0.3-0.3,0.5-0.6,0.5h-6c-0.3,0-0.6-0.3-0.6-0.6v-9.9C-1.5,435.1-1.2,434.9-0.9,434.9z"/>
<path class="st0" d="M463.3,401.6c-0.7-0.8-1.6-1.2-2.6-1.2c-1.4,0-2.3,0.9-2.8,1.6c-0.1,0.2-0.2,0.4-0.3,0.5
	c-0.1-0.2-0.2-0.4-0.3-0.5c-0.5-0.7-1.4-1.6-2.8-1.6c-1,0-1.9,0.4-2.6,1.2c-0.6,0.7-1,1.7-1,2.7c0,1.1,0.4,2.2,1.4,3.3
	c0.8,1,2.1,2,3.5,3.2c0.5,0.4,1.1,0.9,1.6,1.4l0,0c0.1,0.1,0.2,0.1,0.3,0.1c0.1,0,0.2,0,0.3-0.1l0,0c0.6-0.5,1.1-1,1.6-1.4
	c1.4-1.2,2.6-2.2,3.5-3.2c0.9-1.1,1.4-2.2,1.4-3.3C464.3,403.3,463.9,402.3,463.3,401.6z M458.9,410.3c-0.5,0.4-0.9,0.8-1.4,1.2
	c-0.5-0.4-1-0.8-1.4-1.2c-2.8-2.4-4.6-3.9-4.6-5.9c0-0.8,0.3-1.6,0.8-2.2c0.5-0.6,1.2-0.9,2-0.9c1.1,0,1.8,0.7,2.2,1.2
	c0.4,0.5,0.5,1,0.6,1.2c0.1,0.2,0.2,0.3,0.4,0.3c0.2,0,0.3-0.1,0.4-0.3c0.1-0.2,0.3-0.7,0.6-1.2c0.4-0.6,1.1-1.2,2.2-1.2
	c0.8,0,1.5,0.3,2,0.9c0.5,0.6,0.8,1.4,0.8,2.2C463.5,406.3,461.7,407.9,458.9,410.3z"/>
<path class="st0" d="M551.6,408.5v3.4h-1.7v-3.4h-3.4v-1.7h3.4v-3.4h1.7v3.4h3.4v1.7H551.6z M538,403.3h10.2v1.7H538V403.3z
	 M538,399.9h10.2v1.7H538V399.9z M544.8,408.5H538v-1.7h6.8V408.5z"/>
<path class="st0" d="M579.5,408.1c-0.7,0-1.3,0.3-1.7,0.8l-3.3-1.8c0.1-0.2,0.1-0.5,0.1-0.7c0-0.2,0-0.5-0.1-0.7l3.3-1.8
	c0.4,0.5,1,0.8,1.7,0.8c1.2,0,2.1-1,2.1-2.1c0-1.2-1-2.1-2.1-2.1s-2.1,1-2.1,2.1c0,0.2,0,0.5,0.1,0.7l-3.3,1.8
	c-0.4-0.5-1-0.8-1.7-0.8c-1.2,0-2.1,1-2.1,2.1c0,1.2,1,2.1,2.1,2.1c0.7,0,1.3-0.3,1.7-0.8l3.3,1.8c-0.1,0.2-0.1,0.5-0.1,0.7
	c0,1.2,1,2.1,2.1,2.1s2.1-1,2.1-2.1C581.6,409.1,580.6,408.1,579.5,408.1z M579.5,401.1c0.8,0,1.5,0.7,1.5,1.5
	c0,0.8-0.7,1.5-1.5,1.5c-0.8,0-1.5-0.7-1.5-1.5C578,401.7,578.7,401.1,579.5,401.1z M572.5,407.9c-0.8,0-1.5-0.7-1.5-1.5
	c0-0.8,0.7-1.5,1.5-1.5c0.8,0,1.5,0.7,1.5,1.5C574,407.2,573.3,407.9,572.5,407.9z M579.5,411.7c-0.8,0-1.5-0.7-1.5-1.5
	c0-0.8,0.7-1.5,1.5-1.5c0.8,0,1.5,0.7,1.5,1.5C580.9,411.1,580.3,411.7,579.5,411.7z"/>
<path class="st2" d="M492.4,435.1h-4.5v-4.5c0-0.2-0.3-0.7-0.8-0.7c-0.6,0-0.8,0.4-0.8,0.7v4.5h-4.5c-0.2,0-0.7,0.3-0.7,0.8
	c0,0.6,0.4,0.8,0.7,0.8h4.5v4.5c0,0.2,0.3,0.7,0.8,0.7c0.6,0,0.8-0.4,0.8-0.7v-4.5h4.5c0.2,0,0.7-0.3,0.7-0.8
	C493,435.3,492.6,435.1,492.4,435.1z"/>
<path class="st2" d="M521.1,442.4h-9.2c-0.8,0-1.4-0.6-1.4-1.4v-3.3h0.9v3.3c0,0.3,0.2,0.5,0.5,0.5h9.2c0.3,0,0.5-0.2,0.5-0.5v-3.3
	h0.9v3.3C522.5,441.8,521.9,442.4,521.1,442.4z M513.6,436.6l0.7-0.7l1.8,1.8v-7.3h0.9v7.3l1.8-1.8l0.7,0.7l-2.9,2.9L513.6,436.6z"
	/>
<path class="st2" d="M463.3,431.6c-0.7-0.8-1.6-1.2-2.6-1.2c-1.4,0-2.3,0.9-2.8,1.6c-0.1,0.2-0.2,0.4-0.3,0.5
	c-0.1-0.2-0.2-0.4-0.3-0.5c-0.5-0.7-1.4-1.6-2.8-1.6c-1,0-1.9,0.4-2.6,1.2c-0.6,0.7-1,1.7-1,2.7c0,1.1,0.4,2.2,1.4,3.3
	c0.8,1,2.1,2,3.5,3.2c0.5,0.4,1.1,0.9,1.6,1.4l0,0c0.1,0.1,0.2,0.1,0.3,0.1c0.1,0,0.2,0,0.3-0.1l0,0c0.6-0.5,1.1-1,1.6-1.4
	c1.4-1.2,2.6-2.2,3.5-3.2c0.9-1.1,1.4-2.2,1.4-3.3C464.3,433.3,463.9,432.3,463.3,431.6z M458.9,440.3c-0.5,0.4-0.9,0.8-1.4,1.2
	c-0.5-0.4-1-0.8-1.4-1.2c-2.8-2.4-4.6-3.9-4.6-5.9c0-0.8,0.3-1.6,0.8-2.2c0.5-0.6,1.2-0.9,2-0.9c1.1,0,1.8,0.7,2.2,1.2
	c0.4,0.5,0.5,1,0.6,1.2c0.1,0.2,0.2,0.3,0.4,0.3c0.2,0,0.3-0.1,0.4-0.3c0.1-0.2,0.3-0.7,0.6-1.2c0.4-0.6,1.1-1.2,2.2-1.2
	c0.8,0,1.5,0.3,2,0.9c0.5,0.6,0.8,1.4,0.8,2.2C463.5,436.3,461.7,437.9,458.9,440.3z"/>
<path class="st2" d="M551.6,438.5v3.4h-1.7v-3.4h-3.4v-1.7h3.4v-3.4h1.7v3.4h3.4v1.7H551.6z M538,433.3h10.2v1.7H538V433.3z
	 M538,429.9h10.2v1.7H538V429.9z M544.8,438.5H538v-1.7h6.8V438.5z"/>
<path class="st2" d="M579.5,438.1c-0.7,0-1.3,0.3-1.7,0.8l-3.3-1.8c0.1-0.2,0.1-0.5,0.1-0.7c0-0.2,0-0.5-0.1-0.7l3.3-1.8
	c0.4,0.5,1,0.8,1.7,0.8c1.2,0,2.1-1,2.1-2.1c0-1.2-1-2.1-2.1-2.1s-2.1,1-2.1,2.1c0,0.2,0,0.5,0.1,0.7l-3.3,1.8
	c-0.4-0.5-1-0.8-1.7-0.8c-1.2,0-2.1,1-2.1,2.1c0,1.2,1,2.1,2.1,2.1c0.7,0,1.3-0.3,1.7-0.8l3.3,1.8c-0.1,0.2-0.1,0.5-0.1,0.7
	c0,1.2,1,2.1,2.1,2.1s2.1-1,2.1-2.1C581.6,439.1,580.6,438.1,579.5,438.1z M579.5,431.1c0.8,0,1.5,0.7,1.5,1.5
	c0,0.8-0.7,1.5-1.5,1.5c-0.8,0-1.5-0.7-1.5-1.5C578,431.7,578.7,431.1,579.5,431.1z M572.5,437.9c-0.8,0-1.5-0.7-1.5-1.5
	c0-0.8,0.7-1.5,1.5-1.5c0.8,0,1.5,0.7,1.5,1.5C574,437.2,573.3,437.9,572.5,437.9z M579.5,441.7c-0.8,0-1.5-0.7-1.5-1.5
	c0-0.8,0.7-1.5,1.5-1.5c0.8,0,1.5,0.7,1.5,1.5C580.9,441.1,580.3,441.7,579.5,441.7z"/>
</svg>
